<?xml version="1.0" encoding="utf-8"?>
<!-- Generator: Adobe Illustrator 16.0.4, SVG Export Plug-In . SVG Version: 6.00 Build 0)  -->
<!DOCTYPE svg PUBLIC "-//W3C//DTD SVG 1.1//EN" "http://www.w3.org/Graphics/SVG/1.1/DTD/svg11.dtd">
<svg version="1.1" id="Ebene_1" xmlns="http://www.w3.org/2000/svg" xmlns:xlink="http://www.w3.org/1999/xlink" x="0px" y="0px"
	 width="765px" height="78.125px" viewBox="0 0 765 78.125" enable-background="new 0 0 765 78.125" xml:space="preserve">
<g>
	<defs>
		<rect id="SVGID_1_" x="3.875" y="5.048" width="756.873" height="70.156"/>
	</defs>
	<clipPath id="SVGID_2_">
		<use xlink:href="#SVGID_1_"  overflow="visible"/>
	</clipPath>
	<path clip-path="url(#SVGID_2_)" fill="#777575" d="M367.333,37.943c0-11.085,4.553-16.623,13.648-16.623
		s13.644,5.538,13.644,16.623c0,10.781-4.548,16.176-13.644,16.176S367.333,48.725,367.333,37.943 M380.981,14.148
		c-8.342,0-15.603,1.833-21.785,5.507c-7.52,4.37-11.283,10.471-11.283,18.288c0,7.578,3.789,13.618,11.372,18.1
		c6.299,3.503,13.529,5.248,21.696,5.248c8.278,0,15.507-1.807,21.693-5.42c7.578-4.432,11.375-10.41,11.375-17.928
		c0-7.816-3.767-13.917-11.288-18.288C396.468,15.981,389.204,14.148,380.981,14.148 M343.107,41.004h-13.996v7.522
		c0,3.264-2.221,4.893-6.649,4.893c-3.446,0-5.16-1.513-5.16-4.548V22.985h23.965v-6.212h-23.965V5.048h-9.54
		c-0.934,4.254-2.269,7.258-4.022,9.01c-2.218,2.157-5.862,3.238-10.936,3.238v5.689h6.212v21.866
		c0,10.375,7.753,15.566,23.27,15.566c5.129,0,9.504-0.7,13.123-2.096c5.129-1.812,7.697-4.903,7.697-9.273V41.004z M286.947,15.458
		c-2.043-0.35-4.522-0.527-7.436-0.527c-9.854,0-17.352,3.065-22.48,9.187h-0.264v-9.009l-27.906,2.01v5.948h5.596
		c2.86,0,4.289,1.518,4.289,4.553v21.166c0,3.035-1.429,4.553-4.289,4.553h-5.68v5.857h38.486v-5.857h-6.032
		c-2.86,0-4.289-1.518-4.289-4.553v-6.127c0-5.304,0.64-9.207,1.924-11.719c1.865-3.441,5.192-5.162,9.974-5.162
		c2.916,0,4.37,1.081,4.37,3.238v6.212h13.737V15.458z M225.187,37.588c0-7.699-3.733-13.79-11.197-18.277
		c-6.18-3.441-13.382-5.162-21.604-5.162c-8.223,0-15.483,1.833-21.782,5.507c-7.522,4.37-11.283,10.471-11.283,18.288
		c0,7.518,3.908,13.552,11.72,18.1c6.299,3.503,13.56,5.248,21.782,5.248c6.824,0,12.859-0.959,18.107-2.883
		c6.59-2.502,11.252-6.299,13.996-11.369h-18.544c-0.993,2.391-2.858,4.229-5.596,5.507c-2.449,1.051-5.106,1.573-7.963,1.573
		c-8.629,0-13.296-4.604-13.997-13.815h46.361V37.588z M178.914,34.269c0.759-8.634,5.249-12.948,13.471-12.948
		c8.278,0,12.77,4.314,13.471,12.948H178.914z M118.991,53.419c-9.854,0-14.78-5.162-14.78-15.476c0-4.847,1.314-8.664,3.938-11.461
		c2.619-2.918,6.238-4.375,10.842-4.375c4.611,0,8.139,1.518,10.588,4.548c2.276,2.741,3.408,6.507,3.408,11.288
		c0,4.715-1.132,8.391-3.408,11.02C127.13,51.932,123.602,53.419,118.991,53.419 M127.391,14.585
		c-10.032,0-17.673,2.771-22.917,8.309h-0.353v-8.05c-6.124,0.355-11.502,0.66-16.138,0.918c-4.637,0.259-8.588,0.513-11.852,0.746
		v6.299h5.771c2.799,0,4.197,1.284,4.197,3.848v37.966c0,3.03-1.398,4.548-4.197,4.548h-5.599v6.035h37.969v-6.035h-5.688
		c-2.921,0-4.375-1.518-4.375-4.548V53.947h0.436c1.985,2.162,5.134,3.938,9.449,5.334c1.923,0.584,3.789,1.021,5.598,1.314
		c1.807,0.295,3.617,0.437,5.426,0.437c8.222,0,14.724-1.893,19.505-5.685c5.249-4.258,7.875-10.38,7.875-18.374
		c0-7.345-2.398-12.948-7.179-16.791C141.007,16.448,135.03,14.585,127.391,14.585 M48.315,43.096c0,3.096-2.041,5.807-6.126,8.141
		c-3.556,1.979-6.997,2.975-10.321,2.975c-6.591,0-9.882-2.102-9.882-6.299c0-3.324,2.36-5.568,7.085-6.735
		c2.333-0.467,6.002-0.7,11.022-0.7h8.223V43.096z M70.795,53.16c-2.916,0-4.375-1.487-4.375-4.461V29.106
		c0-6.065-3.822-10.151-11.456-12.252c-4.319-1.218-10.557-1.833-18.722-1.833c-19.942,0-29.916,4.69-29.916,14.085h18.107
		c0-5.136,3.934-7.699,11.809-7.699c8.045,0,12.073,2.974,12.073,8.917v4.111h-17.41c-17.843,0-26.855,4.522-27.028,13.562
		c-0.119,8.867,6.85,13.293,20.904,13.293c4.547,0,8.836-0.522,12.859-1.573c5.54-1.513,9.012-3.786,10.41-6.816h0.348v6.294h25.982
		V53.16H70.795z"/>
	<path clip-path="url(#SVGID_2_)" fill="#F35300" d="M760.748,37.451c0-7.695-3.73-13.791-11.197-18.283
		c-6.182-3.441-13.379-5.162-21.602-5.162s-15.48,1.842-21.785,5.517c-7.521,4.37-11.283,10.466-11.283,18.277
		c0,7.522,3.903,13.562,11.72,18.11c6.304,3.497,13.562,5.248,21.785,5.248c6.821,0,12.861-0.959,18.1-2.888
		c6.593-2.508,11.258-6.294,13.999-11.375h-18.547c-0.99,2.396-2.853,4.233-5.594,5.518c-2.446,1.046-5.105,1.573-7.958,1.573
		c-8.634,0-13.299-4.608-13.999-13.826h46.361V37.451z M714.479,34.126c0.751-8.628,5.248-12.948,13.471-12.948
		c8.278,0,12.77,4.319,13.466,12.948H714.479z M663.742,21.884h5.685c0.873,0,1.629,0.117,2.273,0.346
		c0.64,0.233,0.965,0.736,0.965,1.487c0,0.467-0.147,0.969-0.437,1.492c-0.178,0.29-0.365,0.599-0.574,0.914
		c-0.203,0.325-0.391,0.686-0.562,1.097l-10.675,20.47h-0.264L649.57,26.777c-0.467-0.751-0.791-1.334-0.964-1.746
		c-0.117-0.584-0.173-1.051-0.173-1.396c0-1.172,1.162-1.751,3.497-1.751h5.162v-5.948H620v5.948c1.106,0,2.192,0.086,3.238,0.259
		c1.051,0.177,1.837,0.411,2.365,0.7c1.045,0.645,1.893,1.634,2.537,2.975l18.537,33.768h19.246l18.547-32.981
		c0.995-1.863,2.157-3.147,3.502-3.848c0.64-0.294,1.467-0.513,2.492-0.654c1.021-0.147,2.025-0.219,3.021-0.219v-5.948h-29.657
		L663.742,21.884z M573.466,37.801c0-11.08,4.548-16.623,13.644-16.623c9.105,0,13.653,5.542,13.653,16.623
		c0,10.791-4.548,16.186-13.653,16.186C578.014,53.987,573.466,48.592,573.466,37.801 M587.109,14.007
		c-8.334,0-15.592,1.842-21.774,5.517c-7.522,4.37-11.283,10.466-11.283,18.277c0,7.583,3.792,13.618,11.364,18.11
		c6.304,3.497,13.531,5.248,21.693,5.248c8.283,0,15.517-1.807,21.693-5.426c7.588-4.431,11.38-10.41,11.38-17.932
		c0-7.812-3.767-13.907-11.288-18.277C602.596,15.849,595.332,14.007,587.109,14.007 M428.875,21.884h5.771
		c1.979,0,3.238,0.29,3.762,0.873c0.583,0.584,0.877,1.518,0.877,2.802v23.876c0,1.224-0.294,2.188-0.877,2.888
		c-0.523,0.528-1.782,0.787-3.762,0.787h-5.07v5.949h36.215v-5.949h-2.183c-1.929,0-3.188-0.259-3.767-0.787
		c-0.527-0.583-0.791-1.543-0.791-2.888V36.137c0-1.863,0.264-3.64,0.791-5.33c0.406-1.634,1.168-3.152,2.274-4.548
		c0.873-1.228,2.151-2.249,3.847-3.066c1.518-0.756,3.381-1.137,5.6-1.137c3.558,0,6.034,0.7,7.436,2.102
		c1.4,1.34,2.102,3.756,2.102,7.258v18.019c0,1.345-0.265,2.305-0.792,2.888c-0.64,0.528-1.898,0.787-3.762,0.787h-2.705v5.949
		h33.85v-5.949h-2.188c-1.979,0-3.238-0.259-3.767-0.787c-0.578-0.583-0.873-1.543-0.873-2.888V36.137
		c0-1.863,0.265-3.64,0.792-5.33c0.462-1.634,1.219-3.152,2.274-4.548c0.989-1.284,2.273-2.31,3.848-3.066
		c1.512-0.756,3.41-1.137,5.684-1.137c3.559,0,6.041,0.7,7.437,2.102c1.396,1.34,2.097,3.756,2.097,7.258v18.019
		c0,1.224-0.29,2.188-0.873,2.888c-0.523,0.528-1.782,0.787-3.762,0.787h-2.715v5.949h34.91v-5.949h-3.238
		c-1.924,0-3.183-0.259-3.767-0.787c-0.522-0.583-0.781-1.543-0.781-2.888V28.351c0-4.548-1.665-8.015-4.989-10.405
		c-3.264-2.391-8.573-3.583-15.923-3.583c-3.613,0-6.588,0.29-8.918,0.873c-2.513,0.645-4.553,1.371-6.121,2.188
		c-1.695,0.817-3.005,1.69-3.943,2.625c-0.468,0.467-0.884,0.873-1.27,1.223c-0.375,0.35-0.71,0.67-0.999,0.959
		c-0.234-0.29-0.523-0.609-0.879-0.959c-0.345-0.35-0.762-0.756-1.218-1.223c-0.939-0.934-2.224-1.807-3.857-2.625
		c-0.812-0.467-1.757-0.878-2.843-1.228c-1.076-0.345-2.284-0.67-3.624-0.959c-2.568-0.583-5.867-0.873-9.888-0.873
		c-4.086,0-7.755,0.548-11.023,1.66c-3.208,1.046-6.233,2.888-9.096,5.512h-0.26v-6.649c-2.278,0.117-4.562,0.233-6.867,0.35
		c-2.304,0.117-4.623,0.233-6.958,0.345c-2.33,0.122-4.751,0.208-7.253,0.269c-2.513,0.056-5.162,0.086-7.965,0.086V21.884z"/>
</g>
</svg>
