<svg xmlns="http://www.w3.org/2000/svg" xmlns:xlink="http://www.w3.org/1999/xlink" preserveAspectRatio="xMidYMid" width="230" height="200" viewBox="0 0 230 200">
  <defs>
    <style>

      .cls-2 {
        fill: #ffffff;
      }
    </style>
  </defs>
  <path d="M98.000,22.094 C98.000,22.094 100.532,0.472 100.000,0.094 C99.749,-0.085 119.000,0.094 119.000,0.094 C119.000,0.094 126.000,3.094 126.000,3.094 C126.000,3.094 113.000,23.094 113.000,23.094 C113.000,23.094 98.000,22.094 98.000,22.094 ZM106.000,42.094 C106.000,42.094 230.000,55.094 230.000,55.094 C230.000,55.094 113.000,55.094 113.000,55.094 C113.000,55.094 89.227,84.460 89.227,84.460 C89.227,84.460 82.000,200.094 82.000,200.094 C82.000,200.094 78.606,97.581 78.606,97.581 C78.606,97.581 11.000,181.094 11.000,181.094 C11.000,181.094 78.119,82.888 78.119,82.888 C78.119,82.888 77.000,49.094 77.000,49.094 C77.000,49.094 -0.000,24.094 -0.000,24.094 C-0.000,24.094 92.000,40.094 92.000,40.094 C92.000,40.094 90.453,64.841 90.453,64.841 C90.453,64.841 106.000,42.094 106.000,42.094 Z" id="path-1" class="cls-2" fill-rule="evenodd"/>
</svg>
